<svg width="491" height="56" viewBox="0 0 491 56" fill="none" xmlns="http://www.w3.org/2000/svg">
<rect x="1.41626" y="1.41626" width="487.926" height="52.8696" rx="9.97379" fill="white"/>
<rect x="1.41626" y="1.41626" width="487.926" height="52.8696" rx="9.97379" stroke="#E5E7EB" stroke-width="2.83154"/>
<path d="M29.032 34.7699C25.6843 34.7699 24.2738 32.2686 24.2738 28.1875C24.2738 23.8243 26.0041 21.2853 29.1448 21.2853C31.4016 21.2853 32.925 22.8087 33.0943 24.7646H31.6837C31.5333 23.3541 30.6494 22.489 29.1448 22.489C26.4554 22.489 25.6467 24.9903 25.6467 27.9994V28.3755L25.6655 28.3943C26.2674 26.8334 27.7531 26.0811 29.2765 26.0811C31.759 26.0811 33.4516 27.8113 33.4516 30.3503C33.4516 32.7952 31.7966 34.7699 29.032 34.7699ZM29.032 33.5662C30.9691 33.5662 32.0223 32.3062 32.0223 30.4255C32.0223 28.4696 30.9127 27.2847 29.1636 27.2847C27.3582 27.2847 25.9288 28.4884 25.9288 30.5571C25.9288 32.2309 27.0196 33.5662 29.032 33.5662ZM36.8575 28.7893H35.2778V27.2095H36.8575V28.7893ZM36.8575 34.5254H35.2778V32.9456H36.8575V34.5254ZM41.5101 34.5254H40.0807C40.0807 30.4067 42.394 25.2536 45.309 22.7711V22.7335H38.0308V21.5298H46.87V22.583C43.4095 25.3852 41.5101 30.5571 41.5101 34.5254ZM52.5747 34.7699C49.9417 34.7699 47.8165 33.4534 47.8165 30.8957C47.8165 29.0902 48.9826 28.131 50.3179 27.5856V27.548C49.3211 27.0591 48.456 26.1939 48.456 24.727C48.456 22.5454 50.1862 21.2853 52.5747 21.2853C54.9632 21.2853 56.6934 22.5454 56.6934 24.727C56.6934 26.1939 55.8283 27.0591 54.8315 27.548V27.5856C56.148 28.131 57.3328 29.0902 57.3328 30.8957C57.3328 33.4534 55.2076 34.7699 52.5747 34.7699ZM52.5747 26.965C54.1921 26.965 55.2641 26.2315 55.2641 24.727C55.2641 23.2224 54.1921 22.489 52.5747 22.489C50.9573 22.489 49.8853 23.2224 49.8853 24.727C49.8853 26.2315 50.9573 26.965 52.5747 26.965ZM52.5747 33.5662C54.5494 33.5662 55.9035 32.5883 55.9035 30.8392C55.9035 29.1466 54.5494 28.1687 52.5747 28.1687C50.6 28.1687 49.2459 29.1466 49.2459 30.8392C49.2459 32.5883 50.6 33.5662 52.5747 33.5662ZM63.2258 34.5254H61.8153L66.8368 21.0785H68.3789L73.438 34.5254H71.9711L70.617 30.8016H64.5799L63.2258 34.5254ZM67.589 22.3761L65.0313 29.5792H70.1844L67.6267 22.3761H67.589ZM76.3863 34.5254H75.0134V21.0785H76.9129L81.4453 32.6823H81.4829L86.0342 21.0785H87.9337V34.5254H86.5608V23.0156H86.5232L82.0848 34.5254H80.8435L76.4239 23.0156H76.3863V34.5254Z" fill="black" fill-opacity="0.62"/>
<path d="M131.17 32.9146C129.951 34.5929 128.167 35.7748 126.146 36.2433C124.125 36.7117 122.003 36.4352 120.17 35.4644C118.336 34.4937 116.915 32.8941 116.166 30.9593C115.418 29.0246 115.393 26.8848 116.095 24.9329C116.798 22.9811 118.181 21.3484 119.991 20.3348C121.801 19.3211 123.916 18.9947 125.948 19.4153C127.979 19.836 129.79 20.9756 131.049 22.6247C132.307 24.2737 132.929 26.3216 132.798 28.3919M132.798 28.3919L134.414 26.7767M132.798 28.3919L131.183 26.7767" stroke="black" stroke-width="2.15368" stroke-linecap="round" stroke-linejoin="round"/>
<path d="M124.195 23.5449V27.8523L127.426 31.0828" stroke="black" stroke-width="2.15368" stroke-linecap="round" stroke-linejoin="round"/>
<path d="M163.456 37.8516H161.425V24.4046H164.152L168.026 34.9741H168.064L171.957 24.4046H174.684V37.8516H172.653V27.4137H172.615L168.91 37.8516H167.199L163.494 27.4137H163.456V37.8516ZM179.516 38.1149C177.597 38.1149 176.375 37.0053 176.375 35.3691C176.375 33.2251 177.992 32.5856 180.381 32.1343C181.885 31.8522 182.807 31.6641 182.807 30.7237C182.807 30.0279 182.393 29.4449 180.983 29.4449C179.309 29.4449 178.801 29.9715 178.707 31.2503H176.826C176.92 29.4073 178.124 27.9591 181.058 27.9591C183.033 27.9591 184.612 28.7866 184.612 31.2691V35.67C184.612 36.3658 184.706 36.7231 185.064 36.7231C185.12 36.7231 185.177 36.7231 185.289 36.7043V37.8328C184.97 37.908 184.65 37.9456 184.349 37.9456C183.428 37.9456 182.939 37.5883 182.826 36.4975H182.788C182.168 37.4942 181.077 38.1149 179.516 38.1149ZM179.93 36.6291C181.585 36.6291 182.807 35.7828 182.807 34.109V32.7361C182.506 33.0182 181.679 33.2251 180.701 33.4319C179.008 33.7705 178.293 34.2406 178.293 35.2374C178.293 36.1401 178.782 36.6291 179.93 36.6291ZM191.895 27.9779C193.663 27.9779 195.093 28.9935 195.093 31.1939V37.8516H193.249V31.7017C193.249 30.4228 192.685 29.5577 191.294 29.5577C189.714 29.5577 188.698 30.5169 188.698 31.965V37.8516H186.855V28.26H188.698V29.4637H188.736C189.244 28.7302 190.24 27.9779 191.895 27.9779ZM200.865 38.1149C197.95 38.1149 196.502 36.6103 196.446 34.6544H198.308C198.383 35.764 199.06 36.6291 200.846 36.6291C202.464 36.6291 202.896 35.9145 202.896 35.2186C202.896 34.015 201.618 33.8833 200.376 33.62C198.702 33.2251 196.784 32.7361 196.784 30.7426C196.784 29.0875 198.119 27.9779 200.433 27.9779C203.066 27.9779 204.326 29.3885 204.457 31.0435H202.595C202.464 30.31 202.069 29.4637 200.47 29.4637C199.229 29.4637 198.702 29.9527 198.702 30.6673C198.702 31.6641 199.774 31.7581 201.129 32.059C202.896 32.4728 204.815 32.9806 204.815 35.1246C204.815 36.9864 203.385 38.1149 200.865 38.1149ZM212.587 34.1466V28.26H214.43V37.8516H212.587V36.6479H212.55C212.042 37.3814 211.045 38.1149 209.39 38.1149C207.622 38.1149 206.193 37.0993 206.193 34.8989V28.26H208.036V34.3911C208.036 35.6888 208.6 36.5539 209.992 36.5539C211.572 36.5539 212.587 35.5947 212.587 34.1466ZM220.955 28.0344C221.294 28.0344 221.557 28.0532 221.839 28.0908V29.8586C221.614 29.821 221.444 29.8022 221.219 29.8022C219.545 29.8022 218.341 31.0623 218.341 32.8865V37.8516H216.498V28.26H218.341V30.0843H218.379C218.887 28.8807 219.658 28.0344 220.955 28.0344ZM231.904 38.1149C228.5 38.1149 226.112 36.347 225.961 33.3191H228.105C228.256 35.1246 229.328 36.347 231.848 36.347C234.011 36.347 234.669 35.4067 234.669 34.1842C234.669 32.4728 233.352 32.2283 230.908 31.6077C228.801 31.0435 226.488 30.3664 226.488 27.8087C226.488 25.4766 228.293 24.1413 231.19 24.1413C234.255 24.1413 236.249 25.7023 236.456 28.4105H234.312C234.086 26.7931 233.164 25.9092 231.208 25.9092C229.516 25.9092 228.651 26.5298 228.651 27.6958C228.651 29.2004 230.061 29.5201 231.791 29.9527C234.387 30.6109 236.832 31.2315 236.832 34.0714C236.832 36.3846 235.271 38.1149 231.904 38.1149ZM241.042 38.1149C239.124 38.1149 237.901 37.0053 237.901 35.3691C237.901 33.2251 239.519 32.5856 241.907 32.1343C243.412 31.8522 244.333 31.6641 244.333 30.7237C244.333 30.0279 243.92 29.4449 242.509 29.4449C240.835 29.4449 240.328 29.9715 240.234 31.2503H238.353C238.447 29.4073 239.651 27.9591 242.584 27.9591C244.559 27.9591 246.139 28.7866 246.139 31.2691V35.67C246.139 36.3658 246.233 36.7231 246.59 36.7231C246.647 36.7231 246.703 36.7231 246.816 36.7043V37.8328C246.496 37.908 246.177 37.9456 245.876 37.9456C244.954 37.9456 244.465 37.5883 244.352 36.4975H244.315C243.694 37.4942 242.603 38.1149 241.042 38.1149ZM241.456 36.6291C243.111 36.6291 244.333 35.7828 244.333 34.109V32.7361C244.033 33.0182 243.205 33.2251 242.227 33.4319C240.534 33.7705 239.82 34.2406 239.82 35.2374C239.82 36.1401 240.309 36.6291 241.456 36.6291ZM252.839 28.0344C253.177 28.0344 253.441 28.0532 253.723 28.0908V29.8586C253.497 29.821 253.328 29.8022 253.102 29.8022C251.428 29.8022 250.225 31.0623 250.225 32.8865V37.8516H248.382V28.26H250.225V30.0843H250.262C250.77 28.8807 251.541 28.0344 252.839 28.0344ZM256.895 26.5486H254.807V24.5551H256.895V26.5486ZM256.763 37.8516H254.92V28.26H256.763V37.8516ZM263.665 27.9779C266.11 27.9779 267.972 29.8962 267.972 33.0558C267.972 36.2154 266.11 38.1149 263.665 38.1149C262.161 38.1149 261.239 37.4378 260.713 36.6667H260.675V41.1804H258.832V28.26H260.675V29.3885H260.713C261.239 28.7114 262.161 27.9779 263.665 27.9779ZM263.364 36.5915C265.17 36.5915 266.035 34.9365 266.035 33.0558C266.035 31.1751 265.17 29.5201 263.364 29.5201C261.709 29.5201 260.694 30.8742 260.694 33.0558C260.694 35.2186 261.709 36.5915 263.364 36.5915ZM275.877 34.1466V28.26H277.72V37.8516H275.877V36.6479H275.839C275.331 37.3814 274.335 38.1149 272.68 38.1149C270.912 38.1149 269.483 37.0993 269.483 34.8989V28.26H271.326V34.3911C271.326 35.6888 271.89 36.5539 273.282 36.5539C274.861 36.5539 275.877 35.5947 275.877 34.1466ZM286.596 29.4261V24.4046H288.439V37.8516H286.596V36.7231H286.558C286.032 37.4002 285.11 38.1149 283.605 38.1149C281.161 38.1149 279.299 36.2154 279.299 33.0558C279.299 29.8962 281.161 27.9779 283.605 27.9779C285.11 27.9779 286.032 28.6738 286.558 29.4261H286.596ZM283.906 36.5915C285.561 36.5915 286.577 35.2186 286.577 33.0558C286.577 30.8742 285.561 29.5201 283.906 29.5201C282.101 29.5201 281.217 31.1751 281.217 33.0558C281.217 34.9365 282.101 36.5915 283.906 36.5915ZM292.488 26.5486H290.401V24.5551H292.488V26.5486ZM292.357 37.8516H290.513V28.26H292.357V37.8516ZM299.466 27.9779C301.234 27.9779 302.663 28.9935 302.663 31.1939V37.8516H300.82V31.7017C300.82 30.4228 300.256 29.5577 298.864 29.5577C297.284 29.5577 296.269 30.5169 296.269 31.965V37.8516H294.425V28.26H296.269V29.4637H296.306C296.814 28.7302 297.811 27.9779 299.466 27.9779Z" fill="#050505"/>
<path d="M319.914 34.8077C316.928 34.8077 314.775 33.2627 314.602 30.4677H315.921C316.095 32.3946 317.275 33.6967 319.862 33.6967C322.153 33.6967 322.934 32.603 322.934 31.2315C322.952 29.3913 321.667 29.0788 319.115 28.506C317.084 28.0372 315.122 27.4123 315.122 25.1381C315.122 23.159 316.702 21.9438 319.254 21.9438C321.945 21.9438 323.646 23.3153 323.837 25.7457H322.518C322.309 24.027 321.355 23.0548 319.254 23.0548C317.431 23.0548 316.442 23.8013 316.442 25.086C316.442 26.7526 317.917 27.0998 319.74 27.4991C322.292 28.0546 324.254 28.6796 324.254 31.1968C324.254 33.2106 322.865 34.8077 319.914 34.8077ZM333.615 29.7559C333.615 29.9989 333.615 30.242 333.597 30.3809H326.584C326.601 32.169 327.556 33.8529 329.639 33.8529C331.462 33.8529 332.174 32.603 332.347 31.8738H333.493C333.059 33.4883 331.844 34.8251 329.622 34.8251C326.914 34.8251 325.403 32.846 325.403 30.1552C325.403 27.3255 327.07 25.5026 329.622 25.5026C332.174 25.5026 333.615 27.2907 333.615 29.7559ZM326.584 29.3913H332.417C332.417 27.8115 331.393 26.4748 329.57 26.4748C327.851 26.4748 326.671 27.7421 326.584 29.3913ZM339.397 25.52C340.977 25.52 342.297 26.4054 342.297 28.3671V34.582H341.168V28.6101C341.168 27.4817 340.647 26.5095 339.12 26.5095C337.436 26.5095 336.325 27.69 336.325 28.992V34.582H335.196V25.7283H336.325V26.9956H336.359C336.863 26.2665 337.818 25.52 339.397 25.52ZM347.635 25.7283V26.7179H345.847V32.3078C345.847 33.4015 346.09 33.6619 346.958 33.6619C347.236 33.6619 347.375 33.6446 347.635 33.6272V34.582C347.288 34.6341 347.08 34.6515 346.802 34.6515C345.517 34.6515 344.719 34.2175 344.719 32.2905V26.7179H343.417V25.7283H344.719V22.7771H345.847V25.7283H347.635ZM355.326 34.8077C353.555 34.8077 352.427 33.8182 352.427 32.3426C352.427 30.4329 353.781 29.8253 356.073 29.426C357.531 29.1656 358.468 29.0615 358.468 28.0025C358.468 27.0998 357.878 26.4922 356.454 26.4922C354.736 26.4922 354.128 27.0998 354.041 28.4018H352.844C352.93 26.8394 353.92 25.5026 356.489 25.5026C358.121 25.5026 359.562 26.197 359.562 28.315V32.7418C359.562 33.4536 359.666 33.7835 360.065 33.7835C360.135 33.7835 360.204 33.7835 360.308 33.7661V34.582C360.117 34.6168 359.926 34.6515 359.718 34.6515C358.972 34.6515 358.538 34.3563 358.468 33.2453H358.433C357.826 34.2522 356.767 34.8077 355.326 34.8077ZM355.465 33.8182C357.27 33.8182 358.468 32.8634 358.468 31.2662V29.617C358.208 29.9816 357.27 30.1899 356.211 30.3635C354.493 30.676 353.607 31.11 353.607 32.2384C353.607 33.2627 354.18 33.8182 355.465 33.8182ZM367.156 34.582H365.888V22.1695H370.749C373.388 22.1695 374.829 23.4021 374.829 25.6762C374.829 27.3255 373.874 28.4539 372.52 28.8011V28.8358C375.367 29.4087 374.377 34.2695 375.055 34.4779V34.582H373.7C373.128 34.0612 374.256 29.426 370.94 29.426H367.156V34.582ZM367.156 28.315H370.437C372.416 28.315 373.562 27.4296 373.562 25.6936C373.562 24.1138 372.659 23.2805 370.524 23.2805H367.156V28.315ZM384.322 29.7559C384.322 29.9989 384.322 30.242 384.305 30.3809H377.291C377.309 32.169 378.263 33.8529 380.347 33.8529C382.169 33.8529 382.881 32.603 383.055 31.8738H384.201C383.767 33.4883 382.551 34.8251 380.329 34.8251C377.621 34.8251 376.111 32.846 376.111 30.1552C376.111 27.3255 377.777 25.5026 380.329 25.5026C382.881 25.5026 384.322 27.2907 384.322 29.7559ZM377.291 29.3913H383.124C383.124 27.8115 382.1 26.4748 380.277 26.4748C378.558 26.4748 377.378 27.7421 377.291 29.3913ZM390.105 25.52C391.685 25.52 393.004 26.4054 393.004 28.3671V34.582H391.876V28.6101C391.876 27.4817 391.355 26.5095 389.827 26.5095C388.143 26.5095 387.032 27.69 387.032 28.992V34.582H385.904V25.7283H387.032V26.9956H387.067C387.57 26.2665 388.525 25.52 390.105 25.52ZM398.342 25.7283V26.7179H396.554V32.3078C396.554 33.4015 396.797 33.6619 397.665 33.6619C397.943 33.6619 398.082 33.6446 398.342 33.6272V34.582C397.995 34.6341 397.787 34.6515 397.509 34.6515C396.225 34.6515 395.426 34.2175 395.426 32.2905V26.7179H394.124V25.7283H395.426V22.7771H396.554V25.7283H398.342ZM405.148 34.582H403.881V22.1695H408.742C411.38 22.1695 412.821 23.4021 412.821 25.6762C412.821 27.3255 411.866 28.4539 410.512 28.8011V28.8358C413.359 29.4087 412.37 34.2695 413.047 34.4779V34.582H411.693C411.12 34.0612 412.248 29.426 408.933 29.426H405.148V34.582ZM405.148 28.315H408.429C410.408 28.315 411.554 27.4296 411.554 25.6936C411.554 24.1138 410.651 23.2805 408.516 23.2805H405.148V28.315ZM422.314 29.7559C422.314 29.9989 422.314 30.242 422.297 30.3809H415.284C415.301 32.169 416.256 33.8529 418.339 33.8529C420.162 33.8529 420.874 32.603 421.047 31.8738H422.193C421.759 33.4883 420.544 34.8251 418.322 34.8251C415.613 34.8251 414.103 32.846 414.103 30.1552C414.103 27.3255 415.77 25.5026 418.322 25.5026C420.874 25.5026 422.314 27.2907 422.314 29.7559ZM415.284 29.3913H421.117C421.117 27.8115 420.092 26.4748 418.27 26.4748C416.551 26.4748 415.37 27.7421 415.284 29.3913ZM430.337 27.2213V25.7283H431.465V37.6548H430.337V33.1411H430.302C429.799 34.0091 428.861 34.8077 427.316 34.8077C425.163 34.8077 423.427 33.0717 423.427 30.1552C423.427 27.256 425.163 25.52 427.316 25.52C428.861 25.52 429.781 26.2838 430.302 27.2213H430.337ZM427.455 33.8182C429.156 33.8182 430.337 32.3946 430.337 30.1552C430.337 27.9331 429.156 26.5095 427.455 26.5095C425.615 26.5095 424.608 28.1761 424.608 30.1552C424.608 32.1516 425.615 33.8182 427.455 33.8182ZM439.445 31.3183V25.7283H440.573V34.582H439.445V33.3321H439.41C438.907 34.0612 437.952 34.7904 436.372 34.7904C434.793 34.7904 433.473 33.905 433.473 31.9433V25.7283H434.602V31.7002C434.602 32.8286 435.122 33.8008 436.65 33.8008C438.334 33.8008 439.445 32.6203 439.445 31.3183ZM450.406 29.7559C450.406 29.9989 450.406 30.242 450.389 30.3809H443.375C443.393 32.169 444.347 33.8529 446.431 33.8529C448.253 33.8529 448.965 32.603 449.139 31.8738H450.285C449.851 33.4883 448.635 34.8251 446.413 34.8251C443.705 34.8251 442.195 32.846 442.195 30.1552C442.195 27.3255 443.861 25.5026 446.413 25.5026C448.965 25.5026 450.406 27.2907 450.406 29.7559ZM443.375 29.3913H449.208C449.208 27.8115 448.184 26.4748 446.361 26.4748C444.643 26.4748 443.462 27.7421 443.375 29.3913ZM455.252 34.8077C452.769 34.8077 451.415 33.4536 451.363 31.6829H452.543C452.613 32.8981 453.411 33.8182 455.269 33.8182C456.953 33.8182 457.526 33.037 457.526 32.169C457.526 30.8669 456.206 30.7281 454.974 30.4329C453.342 30.0163 451.693 29.617 451.693 27.8983C451.693 26.4575 452.838 25.52 454.835 25.52C457.144 25.52 458.22 26.7526 458.376 28.2108H457.196C457.04 27.4296 456.571 26.5095 454.852 26.5095C453.585 26.5095 452.873 26.9956 452.873 27.8289C452.873 28.94 454.071 29.0962 455.408 29.426C457.074 29.8253 458.724 30.2941 458.724 32.1342C458.724 33.7487 457.439 34.8077 455.252 34.8077ZM463.494 25.7283V26.7179H461.706V32.3078C461.706 33.4015 461.949 33.6619 462.817 33.6619C463.095 33.6619 463.234 33.6446 463.494 33.6272V34.582C463.147 34.6341 462.939 34.6515 462.661 34.6515C461.376 34.6515 460.578 34.2175 460.578 32.2905V26.7179H459.276V25.7283H460.578V22.7771H461.706V25.7283H463.494Z" fill="#050505"/>
</svg>
