<svg width="520" height="56" viewBox="0 0 520 56" fill="none" xmlns="http://www.w3.org/2000/svg">
<rect x="1.41626" y="1.41626" width="517.023" height="52.8696" rx="9.97379" fill="white"/>
<rect x="1.41626" y="1.41626" width="517.023" height="52.8696" rx="9.97379" stroke="#E5E7EB" stroke-width="2.83154"/>
<path d="M31.5521 34.5254H30.198V31.3658H23.8413V30.1622L30.198 21.5298H31.5521V30.1622H33.3952V31.3658H31.5521V34.5254ZM30.198 23.4669L25.2518 30.1622H30.198V23.4669ZM36.5086 28.7893H34.9288V27.2095H36.5086V28.7893ZM36.5086 34.5254H34.9288V32.9456H36.5086V34.5254ZM45.7124 34.5254H44.3583V31.3658H38.0015V30.1622L44.3583 21.5298H45.7124V30.1622H47.5554V31.3658H45.7124V34.5254ZM44.3583 23.4669L39.4121 30.1622H44.3583V23.4669ZM56.2545 34.5254H54.9004V31.3658H48.5437V30.1622L54.9004 21.5298H56.2545V30.1622H58.0976V31.3658H56.2545V34.5254ZM54.9004 23.4669L49.9542 30.1622H54.9004V23.4669ZM63.7217 34.5254H62.3112L67.3327 21.0785H68.8748L73.9339 34.5254H72.4669L71.1128 30.8016H65.0758L63.7217 34.5254ZM68.0849 22.3761L65.5272 29.5792H70.6803L68.1225 22.3761H68.0849ZM76.8821 34.5254H75.5092V21.0785H77.4087L81.9412 32.6823H81.9788L86.5301 21.0785H88.4296V34.5254H87.0567V23.0156H87.0191L82.5806 34.5254H81.3394L76.9198 23.0156H76.8821V34.5254Z" fill="black" fill-opacity="0.62"/>
<path d="M124.144 19.293C123.565 19.2922 122.995 19.4384 122.488 19.7177C121.981 19.9971 121.553 20.4006 121.244 20.8905C120.964 20.8229 120.676 20.7909 120.388 20.7954C119.521 20.8276 118.698 21.1878 118.087 21.8033C117.685 22.2126 117.393 22.7161 117.237 23.2677C117.081 23.8193 117.066 24.4013 117.193 24.9603C116.703 25.2671 116.298 25.6932 116.017 26.1987C115.736 26.7042 115.588 27.2726 115.586 27.851C115.586 28.431 115.734 29.0013 116.015 29.5086C116.296 30.0159 116.701 30.4435 117.193 30.7512C117.067 31.311 117.084 31.8934 117.241 32.4451C117.399 32.9967 117.693 33.4998 118.096 33.9082C118.507 34.3175 119.014 34.6161 119.571 34.7757C120.128 34.9354 120.717 34.951 121.282 34.821C121.588 35.3037 122.011 35.7019 122.511 35.9793C123.011 36.2567 123.572 36.4044 124.144 36.409C124.721 36.4092 125.288 36.2637 125.793 35.9861C126.299 35.7085 126.726 35.3077 127.035 34.821C127.598 34.9472 128.183 34.929 128.737 34.7682C129.291 34.6074 129.796 34.3091 130.204 33.9012C130.612 33.4933 130.91 32.9889 131.071 32.4348C131.231 31.8808 131.25 31.2951 131.123 30.7322C131.607 30.4228 132.005 29.9968 132.281 29.4933C132.557 28.9898 132.702 28.4251 132.702 27.851C132.702 27.2744 132.557 26.7071 132.279 26.2018C132.001 25.6964 131.601 25.2694 131.114 24.9603C131.24 24.3973 131.222 23.8117 131.061 23.2576C130.9 22.7036 130.602 22.1992 130.194 21.7913C129.786 21.3833 129.282 21.0851 128.728 20.9243C128.174 20.7635 127.588 20.7453 127.025 20.8715C126.716 20.3879 126.29 19.9898 125.786 19.714C125.283 19.4382 124.718 19.2934 124.144 19.293Z" stroke="black" stroke-width="1.90178" stroke-linecap="round" stroke-linejoin="round"/>
<path d="M126.999 25.9492L123.195 29.7528" stroke="black" stroke-width="1.90178" stroke-linecap="round" stroke-linejoin="round"/>
<path d="M121.289 27.8516L123.191 29.7533" stroke="black" stroke-width="1.90178" stroke-linecap="round" stroke-linejoin="round"/>
<path d="M161.779 37.8516H159.71V24.4046H165.315C168.286 24.4046 169.885 25.7963 169.885 28.2789C169.885 29.9903 168.85 31.2315 167.365 31.5701V31.6077C170.487 32.1907 169.339 37.4942 170.073 37.7199V37.8516H167.854C167.252 37.2874 168.531 32.5856 165.24 32.5856H161.779V37.8516ZM161.779 30.799H164.863C166.763 30.799 167.797 29.9715 167.797 28.4293C167.797 26.9812 166.97 26.1913 164.901 26.1913H161.779V30.799ZM174.348 38.1149C172.43 38.1149 171.207 37.0053 171.207 35.3691C171.207 33.2251 172.825 32.5856 175.213 32.1343C176.718 31.8522 177.639 31.6641 177.639 30.7237C177.639 30.0279 177.226 29.4449 175.815 29.4449C174.141 29.4449 173.633 29.9715 173.539 31.2503H171.659C171.753 29.4073 172.956 27.9591 175.89 27.9591C177.865 27.9591 179.445 28.7866 179.445 31.2691V35.67C179.445 36.3658 179.539 36.7231 179.896 36.7231C179.953 36.7231 180.009 36.7231 180.122 36.7043V37.8328C179.802 37.908 179.482 37.9456 179.181 37.9456C178.26 37.9456 177.771 37.5883 177.658 36.4975H177.62C177 37.4942 175.909 38.1149 174.348 38.1149ZM174.762 36.6291C176.417 36.6291 177.639 35.7828 177.639 34.109V32.7361C177.338 33.0182 176.511 33.2251 175.533 33.4319C173.84 33.7705 173.126 34.2406 173.126 35.2374C173.126 36.1401 173.615 36.6291 174.762 36.6291ZM192.125 27.9779C194.062 27.9779 195.04 29.144 195.04 31.1939V37.8516H193.197V31.7017C193.197 30.4228 192.934 29.5577 191.523 29.5577C190.151 29.5577 189.285 30.5169 189.285 31.965V37.8516H187.442V31.7017C187.442 30.4228 187.179 29.5577 185.769 29.5577C184.396 29.5577 183.531 30.5169 183.531 31.965V37.8516H181.687V28.26H183.531V29.4637H183.568C184.076 28.7302 184.96 27.9779 186.408 27.9779C187.743 27.9779 188.571 28.5798 188.947 29.6518H188.985C189.68 28.7302 190.658 27.9779 192.125 27.9779ZM199.712 38.1149C197.793 38.1149 196.571 37.0053 196.571 35.3691C196.571 33.2251 198.188 32.5856 200.577 32.1343C202.081 31.8522 203.003 31.6641 203.003 30.7237C203.003 30.0279 202.589 29.4449 201.179 29.4449C199.505 29.4449 198.997 29.9715 198.903 31.2503H197.022C197.116 29.4073 198.32 27.9591 201.254 27.9591C203.229 27.9591 204.808 28.7866 204.808 31.2691V35.67C204.808 36.3658 204.902 36.7231 205.26 36.7231C205.316 36.7231 205.373 36.7231 205.485 36.7043V37.8328C205.166 37.908 204.846 37.9456 204.545 37.9456C203.624 37.9456 203.135 37.5883 203.022 36.4975H202.984C202.363 37.4942 201.273 38.1149 199.712 38.1149ZM200.125 36.6291C201.78 36.6291 203.003 35.7828 203.003 34.109V32.7361C202.702 33.0182 201.874 33.2251 200.897 33.4319C199.204 33.7705 198.489 34.2406 198.489 35.2374C198.489 36.1401 198.978 36.6291 200.125 36.6291ZM211.616 37.8516H209.435L214.437 24.4046H216.675L221.715 37.8516H219.459L218.349 34.6168H212.726L211.616 37.8516ZM215.528 26.3229L213.346 32.8677H217.766L215.566 26.3229H215.528ZM233.247 27.9779C235.184 27.9779 236.162 29.144 236.162 31.1939V37.8516H234.319V31.7017C234.319 30.4228 234.056 29.5577 232.645 29.5577C231.272 29.5577 230.407 30.5169 230.407 31.965V37.8516H228.564V31.7017C228.564 30.4228 228.301 29.5577 226.89 29.5577C225.517 29.5577 224.652 30.5169 224.652 31.965V37.8516H222.809V28.26H224.652V29.4637H224.69C225.198 28.7302 226.082 27.9779 227.53 27.9779C228.865 27.9779 229.693 28.5798 230.069 29.6518H230.106C230.802 28.7302 231.78 27.9779 233.247 27.9779ZM243.015 27.9779C245.46 27.9779 247.322 29.8962 247.322 33.0558C247.322 36.2154 245.46 38.1149 243.015 38.1149C241.51 38.1149 240.589 37.4378 240.062 36.6667H240.025V37.8516H238.182V24.4046H240.025V29.3885H240.062C240.589 28.7114 241.51 27.9779 243.015 27.9779ZM242.714 36.5915C244.52 36.5915 245.385 34.9365 245.385 33.0558C245.385 31.1751 244.52 29.5201 242.714 29.5201C241.059 29.5201 240.044 30.8742 240.044 33.0558C240.044 35.2186 241.059 36.5915 242.714 36.5915ZM251.559 38.1149C249.641 38.1149 248.418 37.0053 248.418 35.3691C248.418 33.2251 250.036 32.5856 252.424 32.1343C253.929 31.8522 254.85 31.6641 254.85 30.7237C254.85 30.0279 254.437 29.4449 253.026 29.4449C251.352 29.4449 250.845 29.9715 250.751 31.2503H248.87C248.964 29.4073 250.167 27.9591 253.101 27.9591C255.076 27.9591 256.656 28.7866 256.656 31.2691V35.67C256.656 36.3658 256.75 36.7231 257.107 36.7231C257.164 36.7231 257.22 36.7231 257.333 36.7043V37.8328C257.013 37.908 256.693 37.9456 256.393 37.9456C255.471 37.9456 254.982 37.5883 254.869 36.4975H254.832C254.211 37.4942 253.12 38.1149 251.559 38.1149ZM251.973 36.6291C253.628 36.6291 254.85 35.7828 254.85 34.109V32.7361C254.55 33.0182 253.722 33.2251 252.744 33.4319C251.051 33.7705 250.337 34.2406 250.337 35.2374C250.337 36.1401 250.826 36.6291 251.973 36.6291ZM262.251 36.441C262.57 36.441 262.721 36.4222 263.041 36.3658V37.8516C262.57 37.9456 262.269 37.9644 261.874 37.9644C260.295 37.9644 259.336 37.3626 259.336 35.1434V29.7834H257.944V28.26H259.336V25.1757H261.179V28.26H263.022V29.7834H261.179V35.1998C261.179 36.2154 261.461 36.441 262.251 36.441ZM270.874 34.1466V28.26H272.718V37.8516H270.874V36.6479H270.837C270.329 37.3814 269.332 38.1149 267.677 38.1149C265.909 38.1149 264.48 37.0993 264.48 34.8989V28.26H266.323V34.3911C266.323 35.6888 266.887 36.5539 268.279 36.5539C269.859 36.5539 270.874 35.5947 270.874 34.1466ZM278.565 38.1149C275.65 38.1149 274.202 36.6103 274.146 34.6544H276.008C276.083 35.764 276.76 36.6291 278.547 36.6291C280.164 36.6291 280.597 35.9145 280.597 35.2186C280.597 34.015 279.318 33.8833 278.076 33.62C276.403 33.2251 274.484 32.7361 274.484 30.7426C274.484 29.0875 275.82 27.9779 278.133 27.9779C280.766 27.9779 282.026 29.3885 282.158 31.0435H280.296C280.164 30.31 279.769 29.4637 278.171 29.4637C276.929 29.4637 276.403 29.9527 276.403 30.6673C276.403 31.6641 277.475 31.7581 278.829 32.059C280.597 32.4728 282.515 32.9806 282.515 35.1246C282.515 36.9864 281.086 38.1149 278.565 38.1149ZM286.62 38.1149C284.702 38.1149 283.479 37.0053 283.479 35.3691C283.479 33.2251 285.097 32.5856 287.485 32.1343C288.99 31.8522 289.911 31.6641 289.911 30.7237C289.911 30.0279 289.498 29.4449 288.087 29.4449C286.413 29.4449 285.905 29.9715 285.811 31.2503H283.931C284.025 29.4073 285.228 27.9591 288.162 27.9591C290.137 27.9591 291.717 28.7866 291.717 31.2691V35.67C291.717 36.3658 291.811 36.7231 292.168 36.7231C292.225 36.7231 292.281 36.7231 292.394 36.7043V37.8328C292.074 37.908 291.754 37.9456 291.453 37.9456C290.532 37.9456 290.043 37.5883 289.93 36.4975H289.893C289.272 37.4942 288.181 38.1149 286.62 38.1149ZM287.034 36.6291C288.689 36.6291 289.911 35.7828 289.911 34.109V32.7361C289.61 33.0182 288.783 33.2251 287.805 33.4319C286.112 33.7705 285.398 34.2406 285.398 35.2374C285.398 36.1401 285.887 36.6291 287.034 36.6291ZM300.279 34.1466V28.26H302.122V37.8516H300.279V36.6479H300.241C299.733 37.3814 298.736 38.1149 297.081 38.1149C295.314 38.1149 293.884 37.0993 293.884 34.8989V28.26H295.727V34.3911C295.727 35.6888 296.292 36.5539 297.683 36.5539C299.263 36.5539 300.279 35.5947 300.279 34.1466ZM310.998 29.4261V24.4046H312.841V37.8516H310.998V36.7231H310.96C310.433 37.4002 309.512 38.1149 308.007 38.1149C305.562 38.1149 303.7 36.2154 303.7 33.0558C303.7 29.8962 305.562 27.9779 308.007 27.9779C309.512 27.9779 310.433 28.6738 310.96 29.4261H310.998ZM308.308 36.5915C309.963 36.5915 310.979 35.2186 310.979 33.0558C310.979 30.8742 309.963 29.5201 308.308 29.5201C306.503 29.5201 305.619 31.1751 305.619 33.0558C305.619 34.9365 306.503 36.5915 308.308 36.5915ZM317.567 38.1149C315.649 38.1149 314.426 37.0053 314.426 35.3691C314.426 33.2251 316.044 32.5856 318.432 32.1343C319.937 31.8522 320.858 31.6641 320.858 30.7237C320.858 30.0279 320.444 29.4449 319.034 29.4449C317.36 29.4449 316.852 29.9715 316.758 31.2503H314.878C314.972 29.4073 316.175 27.9591 319.109 27.9591C321.084 27.9591 322.664 28.7866 322.664 31.2691V35.67C322.664 36.3658 322.758 36.7231 323.115 36.7231C323.171 36.7231 323.228 36.7231 323.341 36.7043V37.8328C323.021 37.908 322.701 37.9456 322.4 37.9456C321.479 37.9456 320.99 37.5883 320.877 36.4975H320.839C320.219 37.4942 319.128 38.1149 317.567 38.1149ZM317.981 36.6291C319.636 36.6291 320.858 35.7828 320.858 34.109V32.7361C320.557 33.0182 319.73 33.2251 318.752 33.4319C317.059 33.7705 316.345 34.2406 316.345 35.2374C316.345 36.1401 316.834 36.6291 317.981 36.6291Z" fill="#050505"/>
<path d="M349.008 34.8077C346.022 34.8077 343.869 33.2627 343.695 30.4677H345.015C345.188 32.3946 346.369 33.6967 348.955 33.6967C351.247 33.6967 352.028 32.603 352.028 31.2315C352.046 29.3913 350.761 29.0788 348.209 28.506C346.178 28.0372 344.216 27.4123 344.216 25.1381C344.216 23.159 345.796 21.9438 348.348 21.9438C351.039 21.9438 352.74 23.3153 352.931 25.7457H351.612C351.403 24.027 350.448 23.0548 348.348 23.0548C346.525 23.0548 345.535 23.8013 345.535 25.086C345.535 26.7526 347.011 27.0998 348.834 27.4991C351.386 28.0546 353.348 28.6796 353.348 31.1968C353.348 33.2106 351.959 34.8077 349.008 34.8077ZM362.708 29.7559C362.708 29.9989 362.708 30.242 362.691 30.3809H355.677C355.695 32.169 356.65 33.8529 358.733 33.8529C360.556 33.8529 361.267 32.603 361.441 31.8738H362.587C362.153 33.4883 360.938 34.8251 358.716 34.8251C356.007 34.8251 354.497 32.846 354.497 30.1552C354.497 27.3255 356.164 25.5026 358.716 25.5026C361.267 25.5026 362.708 27.2907 362.708 29.7559ZM355.677 29.3913H361.511C361.511 27.8115 360.486 26.4748 358.663 26.4748C356.945 26.4748 355.764 27.7421 355.677 29.3913ZM368.491 25.52C370.071 25.52 371.39 26.4054 371.39 28.3671V34.582H370.262V28.6101C370.262 27.4817 369.741 26.5095 368.213 26.5095C366.53 26.5095 365.418 27.69 365.418 28.992V34.582H364.29V25.7283H365.418V26.9956H365.453C365.957 26.2665 366.911 25.52 368.491 25.52ZM376.729 25.7283V26.7179H374.941V32.3078C374.941 33.4015 375.184 33.6619 376.052 33.6619C376.33 33.6619 376.468 33.6446 376.729 33.6272V34.582C376.382 34.6341 376.173 34.6515 375.895 34.6515C374.611 34.6515 373.812 34.2175 373.812 32.2905V26.7179H372.51V25.7283H373.812V22.7771H374.941V25.7283H376.729ZM384.42 34.8077C382.649 34.8077 381.521 33.8182 381.521 32.3426C381.521 30.4329 382.875 29.8253 385.166 29.426C386.625 29.1656 387.562 29.0615 387.562 28.0025C387.562 27.0998 386.972 26.4922 385.548 26.4922C383.83 26.4922 383.222 27.0998 383.135 28.4018H381.937C382.024 26.8394 383.014 25.5026 385.583 25.5026C387.215 25.5026 388.656 26.197 388.656 28.315V32.7418C388.656 33.4536 388.76 33.7835 389.159 33.7835C389.229 33.7835 389.298 33.7835 389.402 33.7661V34.582C389.211 34.6168 389.02 34.6515 388.812 34.6515C388.065 34.6515 387.631 34.3563 387.562 33.2453H387.527C386.92 34.2522 385.861 34.8077 384.42 34.8077ZM384.559 33.8182C386.364 33.8182 387.562 32.8634 387.562 31.2662V29.617C387.302 29.9816 386.364 30.1899 385.305 30.3635C383.586 30.676 382.701 31.11 382.701 32.2384C382.701 33.2627 383.274 33.8182 384.559 33.8182ZM396.249 34.582H394.982V22.1695H399.843C402.482 22.1695 403.923 23.4021 403.923 25.6762C403.923 27.3255 402.968 28.4539 401.614 28.8011V28.8358C404.461 29.4087 403.471 34.2695 404.148 34.4779V34.582H402.794C402.221 34.0612 403.35 29.426 400.034 29.426H396.249V34.582ZM396.249 28.315H399.53C401.51 28.315 402.655 27.4296 402.655 25.6936C402.655 24.1138 401.753 23.2805 399.617 23.2805H396.249V28.315ZM413.416 29.7559C413.416 29.9989 413.416 30.242 413.398 30.3809H406.385C406.402 32.169 407.357 33.8529 409.44 33.8529C411.263 33.8529 411.975 32.603 412.149 31.8738H413.294C412.86 33.4883 411.645 34.8251 409.423 34.8251C406.715 34.8251 405.204 32.846 405.204 30.1552C405.204 27.3255 406.871 25.5026 409.423 25.5026C411.975 25.5026 413.416 27.2907 413.416 29.7559ZM406.385 29.3913H412.218C412.218 27.8115 411.194 26.4748 409.371 26.4748C407.652 26.4748 406.472 27.7421 406.385 29.3913ZM419.199 25.52C420.778 25.52 422.098 26.4054 422.098 28.3671V34.582H420.969V28.6101C420.969 27.4817 420.449 26.5095 418.921 26.5095C417.237 26.5095 416.126 27.69 416.126 28.992V34.582H414.997V25.7283H416.126V26.9956H416.161C416.664 26.2665 417.619 25.52 419.199 25.52ZM427.436 25.7283V26.7179H425.648V32.3078C425.648 33.4015 425.891 33.6619 426.759 33.6619C427.037 33.6619 427.176 33.6446 427.436 33.6272V34.582C427.089 34.6341 426.881 34.6515 426.603 34.6515C425.318 34.6515 424.52 34.2175 424.52 32.2905V26.7179H423.218V25.7283H424.52V22.7771H425.648V25.7283H427.436ZM434.242 34.582H432.975V22.1695H437.835C440.474 22.1695 441.915 23.4021 441.915 25.6762C441.915 27.3255 440.96 28.4539 439.606 28.8011V28.8358C442.453 29.4087 441.464 34.2695 442.141 34.4779V34.582H440.787C440.214 34.0612 441.342 29.426 438.026 29.426H434.242V34.582ZM434.242 28.315H437.523C439.502 28.315 440.648 27.4296 440.648 25.6936C440.648 24.1138 439.745 23.2805 437.61 23.2805H434.242V28.315ZM451.408 29.7559C451.408 29.9989 451.408 30.242 451.391 30.3809H444.377C444.395 32.169 445.349 33.8529 447.433 33.8529C449.256 33.8529 449.967 32.603 450.141 31.8738H451.287C450.853 33.4883 449.637 34.8251 447.415 34.8251C444.707 34.8251 443.197 32.846 443.197 30.1552C443.197 27.3255 444.863 25.5026 447.415 25.5026C449.967 25.5026 451.408 27.2907 451.408 29.7559ZM444.377 29.3913H450.21C450.21 27.8115 449.186 26.4748 447.363 26.4748C445.645 26.4748 444.464 27.7421 444.377 29.3913ZM459.431 27.2213V25.7283H460.559V37.6548H459.431V33.1411H459.396C458.892 34.0091 457.955 34.8077 456.41 34.8077C454.257 34.8077 452.521 33.0717 452.521 30.1552C452.521 27.256 454.257 25.52 456.41 25.52C457.955 25.52 458.875 26.2838 459.396 27.2213H459.431ZM456.549 33.8182C458.25 33.8182 459.431 32.3946 459.431 30.1552C459.431 27.9331 458.25 26.5095 456.549 26.5095C454.709 26.5095 453.702 28.1761 453.702 30.1552C453.702 32.1516 454.709 33.8182 456.549 33.8182ZM468.539 31.3183V25.7283H469.667V34.582H468.539V33.3321H468.504C468.001 34.0612 467.046 34.7904 465.466 34.7904C463.886 34.7904 462.567 33.905 462.567 31.9433V25.7283H463.695V31.7002C463.695 32.8286 464.216 33.8008 465.744 33.8008C467.428 33.8008 468.539 32.6203 468.539 31.3183ZM479.5 29.7559C479.5 29.9989 479.5 30.242 479.483 30.3809H472.469C472.486 32.169 473.441 33.8529 475.524 33.8529C477.347 33.8529 478.059 32.603 478.233 31.8738H479.378C478.944 33.4883 477.729 34.8251 475.507 34.8251C472.799 34.8251 471.289 32.846 471.289 30.1552C471.289 27.3255 472.955 25.5026 475.507 25.5026C478.059 25.5026 479.5 27.2907 479.5 29.7559ZM472.469 29.3913H478.302C478.302 27.8115 477.278 26.4748 475.455 26.4748C473.736 26.4748 472.556 27.7421 472.469 29.3913ZM484.345 34.8077C481.863 34.8077 480.509 33.4536 480.457 31.6829H481.637C481.707 32.8981 482.505 33.8182 484.363 33.8182C486.047 33.8182 486.619 33.037 486.619 32.169C486.619 30.8669 485.3 30.7281 484.068 30.4329C482.436 30.0163 480.786 29.617 480.786 27.8983C480.786 26.4575 481.932 25.52 483.929 25.52C486.238 25.52 487.314 26.7526 487.47 28.2108H486.29C486.133 27.4296 485.665 26.5095 483.946 26.5095C482.679 26.5095 481.967 26.9956 481.967 27.8289C481.967 28.94 483.165 29.0962 484.502 29.426C486.168 29.8253 487.817 30.2941 487.817 32.1342C487.817 33.7487 486.533 34.8077 484.345 34.8077ZM492.588 25.7283V26.7179H490.8V32.3078C490.8 33.4015 491.043 33.6619 491.911 33.6619C492.189 33.6619 492.327 33.6446 492.588 33.6272V34.582C492.241 34.6341 492.032 34.6515 491.755 34.6515C490.47 34.6515 489.671 34.2175 489.671 32.2905V26.7179H488.369V25.7283H489.671V22.7771H490.8V25.7283H492.588Z" fill="#050505"/>
</svg>
