<svg width="553" height="56" viewBox="0 0 553 56" fill="none" xmlns="http://www.w3.org/2000/svg">
<rect x="1.41626" y="1.41626" width="549.235" height="52.8696" rx="9.97379" fill="white"/>
<rect x="1.41626" y="1.41626" width="549.235" height="52.8696" rx="9.97379" stroke="#E5E7EB" stroke-width="2.83154"/>
<path d="M31.5521 34.5254H30.198V31.3658H23.8413V30.1622L30.198 21.5298H31.5521V30.1622H33.3952V31.3658H31.5521V34.5254ZM30.198 23.4669L25.2518 30.1622H30.198V23.4669ZM36.5086 28.7893H34.9288V27.2095H36.5086V28.7893ZM36.5086 34.5254H34.9288V32.9456H36.5086V34.5254ZM45.7124 34.5254H44.3583V31.3658H38.0015V30.1622L44.3583 21.5298H45.7124V30.1622H47.5554V31.3658H45.7124V34.5254ZM44.3583 23.4669L39.4121 30.1622H44.3583V23.4669ZM56.2545 34.5254H54.9004V31.3658H48.5437V30.1622L54.9004 21.5298H56.2545V30.1622H58.0976V31.3658H56.2545V34.5254ZM54.9004 23.4669L49.9542 30.1622H54.9004V23.4669ZM63.7217 34.5254H62.3112L67.3327 21.0785H68.8748L73.9339 34.5254H72.4669L71.1128 30.8016H65.0758L63.7217 34.5254ZM68.0849 22.3761L65.5272 29.5792H70.6803L68.1225 22.3761H68.0849ZM76.8821 34.5254H75.5092V21.0785H77.4087L81.9412 32.6823H81.9788L86.5301 21.0785H88.4296V34.5254H87.0567V23.0156H87.0191L82.5806 34.5254H81.3394L76.9198 23.0156H76.8821V34.5254Z" fill="black" fill-opacity="0.62"/>
<path d="M124.144 19.293C123.565 19.2922 122.995 19.4384 122.488 19.7177C121.981 19.9971 121.553 20.4006 121.244 20.8905C120.964 20.8229 120.676 20.7909 120.388 20.7954C119.521 20.8276 118.698 21.1878 118.087 21.8033C117.685 22.2126 117.393 22.7161 117.237 23.2677C117.081 23.8193 117.066 24.4013 117.193 24.9603C116.703 25.2671 116.298 25.6932 116.017 26.1987C115.736 26.7042 115.588 27.2726 115.586 27.851C115.586 28.431 115.734 29.0013 116.015 29.5086C116.296 30.0159 116.701 30.4435 117.193 30.7512C117.067 31.311 117.084 31.8934 117.241 32.4451C117.399 32.9967 117.693 33.4998 118.096 33.9082C118.507 34.3175 119.014 34.6161 119.571 34.7757C120.128 34.9354 120.717 34.951 121.282 34.821C121.588 35.3037 122.011 35.7019 122.511 35.9793C123.011 36.2567 123.572 36.4044 124.144 36.409C124.721 36.4092 125.288 36.2637 125.793 35.9861C126.299 35.7085 126.726 35.3077 127.035 34.821C127.598 34.9472 128.183 34.929 128.737 34.7682C129.291 34.6074 129.796 34.3091 130.204 33.9012C130.612 33.4933 130.91 32.9889 131.071 32.4348C131.231 31.8808 131.25 31.2951 131.123 30.7322C131.607 30.4228 132.005 29.9968 132.281 29.4933C132.557 28.9898 132.702 28.4251 132.702 27.851C132.702 27.2744 132.557 26.7071 132.279 26.2018C132.001 25.6964 131.601 25.2694 131.114 24.9603C131.24 24.3973 131.222 23.8117 131.061 23.2576C130.9 22.7036 130.602 22.1992 130.194 21.7913C129.786 21.3833 129.282 21.0851 128.728 20.9243C128.174 20.7635 127.588 20.7453 127.025 20.8715C126.716 20.3879 126.29 19.9898 125.786 19.714C125.283 19.4382 124.718 19.2934 124.144 19.293Z" stroke="black" stroke-width="1.90178" stroke-linecap="round" stroke-linejoin="round"/>
<path d="M126.999 25.9492L123.195 29.7528" stroke="black" stroke-width="1.90178" stroke-linecap="round" stroke-linejoin="round"/>
<path d="M121.289 27.8516L123.191 29.7533" stroke="black" stroke-width="1.90178" stroke-linecap="round" stroke-linejoin="round"/>
<path d="M161.779 37.8516H159.71V24.4046H165.315C168.286 24.4046 169.885 25.7963 169.885 28.2789C169.885 29.9903 168.85 31.2315 167.365 31.5701V31.6077C170.487 32.1907 169.339 37.4942 170.073 37.7199V37.8516H167.854C167.252 37.2874 168.531 32.5856 165.24 32.5856H161.779V37.8516ZM161.779 30.799H164.863C166.763 30.799 167.797 29.9715 167.797 28.4293C167.797 26.9812 166.97 26.1913 164.901 26.1913H161.779V30.799ZM174.348 38.1149C172.43 38.1149 171.207 37.0053 171.207 35.3691C171.207 33.2251 172.825 32.5856 175.213 32.1343C176.718 31.8522 177.639 31.6641 177.639 30.7237C177.639 30.0279 177.226 29.4449 175.815 29.4449C174.141 29.4449 173.633 29.9715 173.539 31.2503H171.659C171.753 29.4073 172.956 27.9591 175.89 27.9591C177.865 27.9591 179.445 28.7866 179.445 31.2691V35.67C179.445 36.3658 179.539 36.7231 179.896 36.7231C179.953 36.7231 180.009 36.7231 180.122 36.7043V37.8328C179.802 37.908 179.482 37.9456 179.181 37.9456C178.26 37.9456 177.771 37.5883 177.658 36.4975H177.62C177 37.4942 175.909 38.1149 174.348 38.1149ZM174.762 36.6291C176.417 36.6291 177.639 35.7828 177.639 34.109V32.7361C177.338 33.0182 176.511 33.2251 175.533 33.4319C173.84 33.7705 173.126 34.2406 173.126 35.2374C173.126 36.1401 173.615 36.6291 174.762 36.6291ZM192.125 27.9779C194.062 27.9779 195.04 29.144 195.04 31.1939V37.8516H193.197V31.7017C193.197 30.4228 192.934 29.5577 191.523 29.5577C190.151 29.5577 189.285 30.5169 189.285 31.965V37.8516H187.442V31.7017C187.442 30.4228 187.179 29.5577 185.769 29.5577C184.396 29.5577 183.531 30.5169 183.531 31.965V37.8516H181.687V28.26H183.531V29.4637H183.568C184.076 28.7302 184.96 27.9779 186.408 27.9779C187.743 27.9779 188.571 28.5798 188.947 29.6518H188.985C189.68 28.7302 190.658 27.9779 192.125 27.9779ZM199.712 38.1149C197.793 38.1149 196.571 37.0053 196.571 35.3691C196.571 33.2251 198.188 32.5856 200.577 32.1343C202.081 31.8522 203.003 31.6641 203.003 30.7237C203.003 30.0279 202.589 29.4449 201.179 29.4449C199.505 29.4449 198.997 29.9715 198.903 31.2503H197.022C197.116 29.4073 198.32 27.9591 201.254 27.9591C203.229 27.9591 204.808 28.7866 204.808 31.2691V35.67C204.808 36.3658 204.902 36.7231 205.26 36.7231C205.316 36.7231 205.373 36.7231 205.485 36.7043V37.8328C205.166 37.908 204.846 37.9456 204.545 37.9456C203.624 37.9456 203.135 37.5883 203.022 36.4975H202.984C202.363 37.4942 201.273 38.1149 199.712 38.1149ZM200.125 36.6291C201.78 36.6291 203.003 35.7828 203.003 34.109V32.7361C202.702 33.0182 201.874 33.2251 200.897 33.4319C199.204 33.7705 198.489 34.2406 198.489 35.2374C198.489 36.1401 198.978 36.6291 200.125 36.6291ZM211.616 37.8516H209.435L214.437 24.4046H216.675L221.715 37.8516H219.459L218.349 34.6168H212.726L211.616 37.8516ZM215.528 26.3229L213.346 32.8677H217.766L215.566 26.3229H215.528ZM233.247 27.9779C235.184 27.9779 236.162 29.144 236.162 31.1939V37.8516H234.319V31.7017C234.319 30.4228 234.056 29.5577 232.645 29.5577C231.272 29.5577 230.407 30.5169 230.407 31.965V37.8516H228.564V31.7017C228.564 30.4228 228.301 29.5577 226.89 29.5577C225.517 29.5577 224.652 30.5169 224.652 31.965V37.8516H222.809V28.26H224.652V29.4637H224.69C225.198 28.7302 226.082 27.9779 227.53 27.9779C228.865 27.9779 229.693 28.5798 230.069 29.6518H230.106C230.802 28.7302 231.78 27.9779 233.247 27.9779ZM243.015 27.9779C245.46 27.9779 247.322 29.8962 247.322 33.0558C247.322 36.2154 245.46 38.1149 243.015 38.1149C241.51 38.1149 240.589 37.4378 240.062 36.6667H240.025V37.8516H238.182V24.4046H240.025V29.3885H240.062C240.589 28.7114 241.51 27.9779 243.015 27.9779ZM242.714 36.5915C244.52 36.5915 245.385 34.9365 245.385 33.0558C245.385 31.1751 244.52 29.5201 242.714 29.5201C241.059 29.5201 240.044 30.8742 240.044 33.0558C240.044 35.2186 241.059 36.5915 242.714 36.5915ZM251.559 38.1149C249.641 38.1149 248.418 37.0053 248.418 35.3691C248.418 33.2251 250.036 32.5856 252.424 32.1343C253.929 31.8522 254.85 31.6641 254.85 30.7237C254.85 30.0279 254.437 29.4449 253.026 29.4449C251.352 29.4449 250.845 29.9715 250.751 31.2503H248.87C248.964 29.4073 250.167 27.9591 253.101 27.9591C255.076 27.9591 256.656 28.7866 256.656 31.2691V35.67C256.656 36.3658 256.75 36.7231 257.107 36.7231C257.164 36.7231 257.22 36.7231 257.333 36.7043V37.8328C257.013 37.908 256.693 37.9456 256.393 37.9456C255.471 37.9456 254.982 37.5883 254.869 36.4975H254.832C254.211 37.4942 253.12 38.1149 251.559 38.1149ZM251.973 36.6291C253.628 36.6291 254.85 35.7828 254.85 34.109V32.7361C254.55 33.0182 253.722 33.2251 252.744 33.4319C251.051 33.7705 250.337 34.2406 250.337 35.2374C250.337 36.1401 250.826 36.6291 251.973 36.6291ZM262.251 36.441C262.57 36.441 262.721 36.4222 263.041 36.3658V37.8516C262.57 37.9456 262.269 37.9644 261.874 37.9644C260.295 37.9644 259.336 37.3626 259.336 35.1434V29.7834H257.944V28.26H259.336V25.1757H261.179V28.26H263.022V29.7834H261.179V35.1998C261.179 36.2154 261.461 36.441 262.251 36.441ZM270.874 34.1466V28.26H272.718V37.8516H270.874V36.6479H270.837C270.329 37.3814 269.332 38.1149 267.677 38.1149C265.909 38.1149 264.48 37.0993 264.48 34.8989V28.26H266.323V34.3911C266.323 35.6888 266.887 36.5539 268.279 36.5539C269.859 36.5539 270.874 35.5947 270.874 34.1466ZM278.565 38.1149C275.65 38.1149 274.202 36.6103 274.146 34.6544H276.008C276.083 35.764 276.76 36.6291 278.547 36.6291C280.164 36.6291 280.597 35.9145 280.597 35.2186C280.597 34.015 279.318 33.8833 278.076 33.62C276.403 33.2251 274.484 32.7361 274.484 30.7426C274.484 29.0875 275.82 27.9779 278.133 27.9779C280.766 27.9779 282.026 29.3885 282.158 31.0435H280.296C280.164 30.31 279.769 29.4637 278.171 29.4637C276.929 29.4637 276.403 29.9527 276.403 30.6673C276.403 31.6641 277.475 31.7581 278.829 32.059C280.597 32.4728 282.515 32.9806 282.515 35.1246C282.515 36.9864 281.086 38.1149 278.565 38.1149ZM286.62 38.1149C284.702 38.1149 283.479 37.0053 283.479 35.3691C283.479 33.2251 285.097 32.5856 287.485 32.1343C288.99 31.8522 289.911 31.6641 289.911 30.7237C289.911 30.0279 289.498 29.4449 288.087 29.4449C286.413 29.4449 285.905 29.9715 285.811 31.2503H283.931C284.025 29.4073 285.228 27.9591 288.162 27.9591C290.137 27.9591 291.717 28.7866 291.717 31.2691V35.67C291.717 36.3658 291.811 36.7231 292.168 36.7231C292.225 36.7231 292.281 36.7231 292.394 36.7043V37.8328C292.074 37.908 291.754 37.9456 291.453 37.9456C290.532 37.9456 290.043 37.5883 289.93 36.4975H289.893C289.272 37.4942 288.181 38.1149 286.62 38.1149ZM287.034 36.6291C288.689 36.6291 289.911 35.7828 289.911 34.109V32.7361C289.61 33.0182 288.783 33.2251 287.805 33.4319C286.112 33.7705 285.398 34.2406 285.398 35.2374C285.398 36.1401 285.887 36.6291 287.034 36.6291ZM300.279 34.1466V28.26H302.122V37.8516H300.279V36.6479H300.241C299.733 37.3814 298.736 38.1149 297.081 38.1149C295.314 38.1149 293.884 37.0993 293.884 34.8989V28.26H295.727V34.3911C295.727 35.6888 296.292 36.5539 297.683 36.5539C299.263 36.5539 300.279 35.5947 300.279 34.1466ZM310.998 29.4261V24.4046H312.841V37.8516H310.998V36.7231H310.96C310.433 37.4002 309.512 38.1149 308.007 38.1149C305.562 38.1149 303.7 36.2154 303.7 33.0558C303.7 29.8962 305.562 27.9779 308.007 27.9779C309.512 27.9779 310.433 28.6738 310.96 29.4261H310.998ZM308.308 36.5915C309.963 36.5915 310.979 35.2186 310.979 33.0558C310.979 30.8742 309.963 29.5201 308.308 29.5201C306.503 29.5201 305.619 31.1751 305.619 33.0558C305.619 34.9365 306.503 36.5915 308.308 36.5915ZM317.567 38.1149C315.649 38.1149 314.426 37.0053 314.426 35.3691C314.426 33.2251 316.044 32.5856 318.432 32.1343C319.937 31.8522 320.858 31.6641 320.858 30.7237C320.858 30.0279 320.444 29.4449 319.034 29.4449C317.36 29.4449 316.852 29.9715 316.758 31.2503H314.878C314.972 29.4073 316.175 27.9591 319.109 27.9591C321.084 27.9591 322.664 28.7866 322.664 31.2691V35.67C322.664 36.3658 322.758 36.7231 323.115 36.7231C323.171 36.7231 323.228 36.7231 323.341 36.7043V37.8328C323.021 37.908 322.701 37.9456 322.4 37.9456C321.479 37.9456 320.99 37.5883 320.877 36.4975H320.839C320.219 37.4942 319.128 38.1149 317.567 38.1149ZM317.981 36.6291C319.636 36.6291 320.858 35.7828 320.858 34.109V32.7361C320.557 33.0182 319.73 33.2251 318.752 33.4319C317.059 33.7705 316.345 34.2406 316.345 35.2374C316.345 36.1401 316.834 36.6291 317.981 36.6291Z" fill="#050505"/>
<path d="M344.685 37.0645H343.383L348.018 24.6519H349.442L354.111 37.0645H352.757L351.507 33.6271H345.935L344.685 37.0645ZM348.712 25.8498L346.351 32.4987H351.108L348.747 25.8498H348.712ZM358.766 37.2901C356.232 37.2901 354.531 35.4152 354.531 32.6376C354.531 29.8773 356.232 28.0024 358.766 28.0024C360.919 28.0024 362.377 29.4433 362.568 31.3182H361.388C361.318 30.3287 360.607 28.992 358.766 28.992C356.596 28.992 355.711 30.8321 355.711 32.6376C355.711 34.4604 356.596 36.318 358.766 36.318C360.624 36.318 361.318 34.9812 361.388 33.9049H362.568C362.447 35.8145 360.919 37.2901 358.766 37.2901ZM367.836 37.2901C365.302 37.2901 363.601 35.4152 363.601 32.6376C363.601 29.8773 365.302 28.0024 367.836 28.0024C369.989 28.0024 371.447 29.4433 371.638 31.3182H370.458C370.388 30.3287 369.677 28.992 367.836 28.992C365.666 28.992 364.781 30.8321 364.781 32.6376C364.781 34.4604 365.666 36.318 367.836 36.318C369.694 36.318 370.388 34.9812 370.458 33.9049H371.638C371.517 35.8145 369.989 37.2901 367.836 37.2901ZM380.899 32.2383C380.899 32.4814 380.899 32.7244 380.882 32.8633H373.868C373.886 34.6514 374.841 36.3353 376.924 36.3353C378.747 36.3353 379.458 35.0854 379.632 34.3563H380.778C380.344 35.9708 379.129 37.3075 376.906 37.3075C374.198 37.3075 372.688 35.3284 372.688 32.6376C372.688 29.8079 374.355 27.9851 376.906 27.9851C379.458 27.9851 380.899 29.7732 380.899 32.2383ZM373.868 31.8737H379.701C379.701 30.294 378.677 28.9572 376.854 28.9572C375.136 28.9572 373.955 30.2245 373.868 31.8737ZM386.63 27.9851C388.8 27.9851 390.536 29.7211 390.536 32.6376C390.536 35.5368 388.8 37.2728 386.63 37.2728C385.085 37.2728 384.165 36.5089 383.644 35.5715H383.609V40.1372H382.481V28.2107H383.609V29.6343H383.644C384.165 28.7836 385.085 27.9851 386.63 27.9851ZM386.509 36.2832C388.349 36.2832 389.356 34.6167 389.356 32.6376C389.356 30.6412 388.349 28.9746 386.509 28.9746C384.807 28.9746 383.609 30.3981 383.609 32.6376C383.609 34.8597 384.807 36.2832 386.509 36.2832ZM395.394 28.2107V29.2003H393.606V34.7903C393.606 35.884 393.849 36.1444 394.717 36.1444C394.995 36.1444 395.134 36.127 395.394 36.1096V37.0645C395.047 37.1165 394.839 37.1339 394.561 37.1339C393.276 37.1339 392.478 36.6999 392.478 34.7729V29.2003H391.176V28.2107H392.478V25.2595H393.606V28.2107H395.394ZM404.397 32.2383C404.397 32.4814 404.397 32.7244 404.379 32.8633H397.366C397.383 34.6514 398.338 36.3353 400.421 36.3353C402.244 36.3353 402.956 35.0854 403.129 34.3563H404.275C403.841 35.9708 402.626 37.3075 400.404 37.3075C397.696 37.3075 396.185 35.3284 396.185 32.6376C396.185 29.8079 397.852 27.9851 400.404 27.9851C402.956 27.9851 404.397 29.7732 404.397 32.2383ZM397.366 31.8737H403.199C403.199 30.294 402.175 28.9572 400.352 28.9572C398.633 28.9572 397.453 30.2245 397.366 31.8737ZM412.419 29.7037V24.6519H413.547V37.0645H412.419V35.6236H412.384C411.881 36.4916 410.943 37.2901 409.398 37.2901C407.246 37.2901 405.51 35.5541 405.51 32.6376C405.51 29.7384 407.246 28.0024 409.398 28.0024C410.943 28.0024 411.863 28.7663 412.384 29.7037H412.419ZM409.537 36.3006C411.238 36.3006 412.419 34.8771 412.419 32.6376C412.419 30.4155 411.238 28.992 409.537 28.992C407.697 28.992 406.69 30.6585 406.69 32.6376C406.69 34.634 407.697 36.3006 409.537 36.3006ZM420.984 37.0645H419.717V24.6519H424.578C427.217 24.6519 428.658 25.8845 428.658 28.1587C428.658 29.8079 427.703 30.9363 426.349 31.2835V31.3182C429.196 31.8911 428.206 36.752 428.883 36.9603V37.0645H427.529C426.956 36.5436 428.085 31.9085 424.769 31.9085H420.984V37.0645ZM420.984 30.7974H424.265C426.244 30.7974 427.39 29.912 427.39 28.176C427.39 26.5962 426.487 25.763 424.352 25.763H420.984V30.7974ZM438.151 32.2383C438.151 32.4814 438.151 32.7244 438.133 32.8633H431.12C431.137 34.6514 432.092 36.3353 434.175 36.3353C435.998 36.3353 436.71 35.0854 436.883 34.3563H438.029C437.595 35.9708 436.38 37.3075 434.158 37.3075C431.45 37.3075 429.939 35.3284 429.939 32.6376C429.939 29.8079 431.606 27.9851 434.158 27.9851C436.71 27.9851 438.151 29.7732 438.151 32.2383ZM431.12 31.8737H436.953C436.953 30.294 435.929 28.9572 434.106 28.9572C432.387 28.9572 431.207 30.2245 431.12 31.8737ZM443.934 28.0024C445.513 28.0024 446.833 28.8878 446.833 30.8495V37.0645H445.704V31.0925C445.704 29.9641 445.184 28.992 443.656 28.992C441.972 28.992 440.861 30.1724 440.861 31.4745V37.0645H439.732V28.2107H440.861V29.478H440.896C441.399 28.7489 442.354 28.0024 443.934 28.0024ZM452.171 28.2107V29.2003H450.383V34.7903C450.383 35.884 450.626 36.1444 451.494 36.1444C451.772 36.1444 451.911 36.127 452.171 36.1096V37.0645C451.824 37.1165 451.616 37.1339 451.338 37.1339C450.053 37.1339 449.255 36.6999 449.255 34.7729V29.2003H447.953V28.2107H449.255V25.2595H450.383V28.2107H452.171ZM458.977 37.0645H457.709V24.6519H462.57C465.209 24.6519 466.65 25.8845 466.65 28.1587C466.65 29.8079 465.695 30.9363 464.341 31.2835V31.3182C467.188 31.8911 466.199 36.752 466.876 36.9603V37.0645H465.522C464.949 36.5436 466.077 31.9085 462.761 31.9085H458.977V37.0645ZM458.977 30.7974H462.258C464.237 30.7974 465.383 29.912 465.383 28.176C465.383 26.5962 464.48 25.763 462.345 25.763H458.977V30.7974ZM476.143 32.2383C476.143 32.4814 476.143 32.7244 476.126 32.8633H469.112C469.13 34.6514 470.084 36.3353 472.168 36.3353C473.99 36.3353 474.702 35.0854 474.876 34.3563H476.022C475.588 35.9708 474.372 37.3075 472.15 37.3075C469.442 37.3075 467.932 35.3284 467.932 32.6376C467.932 29.8079 469.598 27.9851 472.15 27.9851C474.702 27.9851 476.143 29.7732 476.143 32.2383ZM469.112 31.8737H474.945C474.945 30.294 473.921 28.9572 472.098 28.9572C470.38 28.9572 469.199 30.2245 469.112 31.8737ZM484.165 29.7037V28.2107H485.294V40.1372H484.165V35.6236H484.131C483.627 36.4916 482.69 37.2901 481.145 37.2901C478.992 37.2901 477.256 35.5541 477.256 32.6376C477.256 29.7384 478.992 28.0024 481.145 28.0024C482.69 28.0024 483.61 28.7663 484.131 29.7037H484.165ZM481.284 36.3006C482.985 36.3006 484.165 34.8771 484.165 32.6376C484.165 30.4155 482.985 28.992 481.284 28.992C479.443 28.992 478.437 30.6585 478.437 32.6376C478.437 34.634 479.443 36.3006 481.284 36.3006ZM493.274 33.8007V28.2107H494.402V37.0645H493.274V35.8145H493.239C492.736 36.5436 491.781 37.2728 490.201 37.2728C488.621 37.2728 487.302 36.3874 487.302 34.4257V28.2107H488.43V34.1827C488.43 35.3111 488.951 36.2832 490.479 36.2832C492.163 36.2832 493.274 35.1027 493.274 33.8007ZM504.235 32.2383C504.235 32.4814 504.235 32.7244 504.217 32.8633H497.204C497.221 34.6514 498.176 36.3353 500.259 36.3353C502.082 36.3353 502.794 35.0854 502.968 34.3563H504.113C503.679 35.9708 502.464 37.3075 500.242 37.3075C497.534 37.3075 496.023 35.3284 496.023 32.6376C496.023 29.8079 497.69 27.9851 500.242 27.9851C502.794 27.9851 504.235 29.7732 504.235 32.2383ZM497.204 31.8737H503.037C503.037 30.294 502.013 28.9572 500.19 28.9572C498.471 28.9572 497.291 30.2245 497.204 31.8737ZM509.08 37.2901C506.598 37.2901 505.244 35.936 505.192 34.1653H506.372C506.441 35.3805 507.24 36.3006 509.098 36.3006C510.781 36.3006 511.354 35.5194 511.354 34.6514C511.354 33.3494 510.035 33.2105 508.802 32.9154C507.171 32.4987 505.521 32.0994 505.521 30.3808C505.521 28.9399 506.667 28.0024 508.664 28.0024C510.972 28.0024 512.049 29.235 512.205 30.6933H511.025C510.868 29.912 510.4 28.992 508.681 28.992C507.414 28.992 506.702 29.478 506.702 30.3113C506.702 31.4224 507.9 31.5786 509.236 31.9085C510.903 32.3078 512.552 32.7765 512.552 34.6167C512.552 36.2312 511.268 37.2901 509.08 37.2901ZM517.323 28.2107V29.2003H515.535V34.7903C515.535 35.884 515.778 36.1444 516.646 36.1444C516.923 36.1444 517.062 36.127 517.323 36.1096V37.0645C516.976 37.1165 516.767 37.1339 516.489 37.1339C515.205 37.1339 514.406 36.6999 514.406 34.7729V29.2003H513.104V28.2107H514.406V25.2595H515.535V28.2107H517.323Z" fill="#050505"/>
</svg>
